<svg width="12" height="16" viewBox="0 0 12 16" fill="none" xmlns="http://www.w3.org/2000/svg">
<path d="M6 0C2.6916 0 0 2.73366 0 6.09375C0 8.24666 1.10498 10.1424 2.76923 11.2267V15.5312C2.76923 15.7041 2.86292 15.863 3.01298 15.9445C3.16308 16.0261 3.34517 16.0172 3.48677 15.9213L6 14.2196L8.51323 15.9213C8.65477 16.0171 8.83686 16.0262 8.98702 15.9445C9.13708 15.863 9.23077 15.7041 9.23077 15.5312V11.2267C10.895 10.1424 12 8.24666 12 6.09375C12 2.73366 9.3084 0 6 0ZM8.30769 14.6554L6.256 13.2662C6.10099 13.1613 5.89898 13.1613 5.74397 13.2662L3.69231 14.6554V11.7185C4.40308 12.0204 5.18265 12.1875 6 12.1875C6.81735 12.1875 7.59692 12.0204 8.30769 11.7185V14.6554ZM6 11.25C3.20058 11.25 0.923077 8.93691 0.923077 6.09375C0.923077 3.25059 3.20058 0.9375 6 0.9375C8.79942 0.9375 11.0769 3.25059 11.0769 6.09375C11.0769 8.93691 8.79945 11.25 6 11.25Z" fill="#728188"/>
<path d="M9.67031 4.99716C9.61634 4.82601 9.4708 4.70126 9.29557 4.67601L7.30159 4.38869L6.41187 2.60103C6.33335 2.44325 6.17405 2.34375 5.99996 2.34375C5.82587 2.34375 5.66661 2.44325 5.58805 2.60103L4.69833 4.38869L2.70435 4.67601C2.52915 4.70126 2.38358 4.82601 2.32961 4.99716C2.27565 5.16832 2.32281 5.35576 2.451 5.47966L3.88719 6.86785L3.54866 8.82514C3.51836 9.00039 3.58836 9.17798 3.7294 9.28355C3.87042 9.38914 4.05814 9.40451 4.21402 9.32326L5.99996 8.39223L7.7859 9.3233C7.94209 9.4047 8.12978 9.38898 8.27052 9.28358C8.41153 9.17801 8.48153 9.00042 8.45126 8.82517L8.11273 6.86788L9.54892 5.47969C9.67711 5.35576 9.72428 5.16835 9.67031 4.99716ZM7.29716 6.36198C7.18522 6.47016 7.13402 6.62807 7.16076 6.78263L7.38147 8.05867L6.21073 7.44832C6.07839 7.37935 5.9215 7.37935 5.78919 7.44832L4.61845 8.05867L4.83916 6.78263C4.8659 6.62807 4.8147 6.47016 4.70276 6.36198L3.77808 5.46819L5.06642 5.28257C5.21581 5.26104 5.34544 5.16669 5.4135 5.02994L5.99996 3.85157L6.58642 5.02991C6.65448 5.16669 6.78408 5.26104 6.9335 5.28254L8.22184 5.46816L7.29716 6.36198Z" fill="#728188"/>
</svg>
