<svg width="8" height="8" viewBox="0 0 8 8" fill="none" xmlns="http://www.w3.org/2000/svg">
<path d="M6.06727 2.0855L4.2006 0.0855C4.14993 0.0315 4.07687 0 4.00007 0C3.92327 0 3.8502 0.0315 3.79953 0.0855L1.93287 2.0855C1.86407 2.1595 1.847 2.264 1.89073 2.3535C1.93393 2.4425 2.02887 2.5 2.1334 2.5H3.20007V5.75C3.20007 5.888 3.31953 6 3.46673 6H4.5334C4.6806 6 4.80007 5.888 4.80007 5.75V2.5H5.86673C5.97127 2.5 6.0662 2.443 6.1094 2.3535C6.1526 2.264 6.1366 2.159 6.06727 2.0855Z" fill="white"/>
<path d="M6.93333 5.5V7H1.06667V5.5H0V7.5C0 7.7765 0.238933 8 0.533333 8H7.46667C7.7616 8 8 7.7765 8 7.5V5.5H6.93333Z" fill="white"/>
</svg>
