<svg width="16" height="16" viewBox="0 0 16 16" fill="none" xmlns="http://www.w3.org/2000/svg">
<path d="M1.50403 1.43673V2.57959H2.17603V1.76326H2.97603V1.07755H1.85603C1.66403 1.07755 1.50403 1.24081 1.50403 1.43673Z" fill="#728188"/>
<path d="M13.76 2.57959H14.432V1.43673C14.432 1.24081 14.272 1.07755 14.08 1.07755H12.96V1.76326H13.76V2.57959Z" fill="#728188"/>
<path d="M14.432 10.0245V8.88162H13.76V9.69795H12.96V10.3837H14.08C14.272 10.3837 14.432 10.2204 14.432 10.0245Z" fill="#728188"/>
<path d="M2.17603 8.88162H1.50403V10.0245C1.50403 10.2204 1.66403 10.3837 1.85603 10.3837H2.97603V9.69795H2.17603V8.88162Z" fill="#728188"/>
<path d="M11.2 2.97144H4.73596V3.65715H11.2V2.97144Z" fill="#728188"/>
<path d="M12.8 4.57147H3.16797V5.25719H12.8V4.57147Z" fill="#728188"/>
<path d="M15.584 0H0.352C0.16 0 0 0.163265 0 0.359184V11.102C0 11.298 0.16 11.4612 0.352 11.4612H5.024C5.024 11.5265 5.024 11.5592 5.056 11.6245L3.616 13.3551C3.552 13.4204 3.52 13.5184 3.552 13.6163C3.552 13.7143 3.616 13.7796 3.68 13.8449C3.712 13.8776 3.776 13.9102 3.808 13.9102L5.376 14.302L6.016 15.8041C6.08 15.9347 6.208 16 6.336 16C6.368 16 6.432 16 6.464 15.9673C6.528 15.9347 6.56 15.902 6.592 15.8694L8 14.1714L9.408 15.8694C9.536 16.0327 9.76 16.0327 9.888 15.902C9.92 15.8694 9.952 15.8367 9.984 15.7714L10.624 14.2694L12.192 13.8776C12.384 13.8449 12.48 13.649 12.448 13.4531C12.448 13.3878 12.416 13.3551 12.384 13.3224L10.944 11.5918C10.944 11.5265 10.976 11.4939 10.976 11.4286H15.648C15.84 11.4286 16 11.2653 16 11.0694V0.359184C15.936 0.163265 15.776 0 15.584 0ZM6.4 14.9878L5.92 13.8449C5.888 13.7469 5.792 13.6816 5.696 13.649L4.512 13.3551L5.28 12.4082C5.312 12.4735 5.344 12.5061 5.344 12.5714C5.376 12.6041 5.376 12.6367 5.408 12.6694C5.44 12.7347 5.472 12.8 5.536 12.8653C5.568 12.898 5.6 12.9633 5.632 12.9959C5.664 13.0286 5.696 13.0939 5.76 13.1265C5.792 13.1592 5.856 13.2245 5.888 13.2571C5.92 13.2898 5.952 13.3224 5.984 13.3551L6.016 13.3878C6.048 13.4204 6.048 13.4204 6.08 13.4531C6.112 13.4857 6.112 13.4857 6.144 13.4857L6.176 13.5184C6.176 13.5184 6.208 13.5184 6.208 13.551L6.24 13.5837L6.304 13.6163C6.336 13.649 6.368 13.649 6.4 13.6816C6.464 13.7469 6.56 13.7796 6.624 13.8122C6.656 13.8122 6.688 13.8449 6.72 13.8449C6.784 13.8776 6.88 13.9102 6.944 13.9429L7.008 13.9755C7.072 14.0082 7.136 14.0082 7.2 14.0408L6.4 14.9878ZM11.52 13.3878L10.336 13.6816C10.24 13.7143 10.144 13.7796 10.112 13.8776L9.632 15.0204L8.768 14.0408C8.832 14.0082 8.896 14.0082 8.96 13.9755L9.024 13.9429C9.088 13.9102 9.184 13.8776 9.248 13.8449H9.28C9.312 13.8449 9.312 13.8122 9.344 13.8122C9.44 13.7796 9.504 13.7143 9.568 13.6816C9.6 13.649 9.632 13.649 9.664 13.6163L9.728 13.5837C9.76 13.5837 9.76 13.551 9.792 13.551C9.792 13.551 9.824 13.551 9.824 13.5184L9.856 13.4857C9.888 13.4857 9.888 13.4531 9.92 13.4531C9.952 13.4531 9.952 13.4204 9.984 13.4204L10.016 13.3878C10.048 13.3551 10.08 13.3224 10.112 13.2898C10.144 13.2571 10.208 13.1918 10.24 13.1592C10.272 13.1265 10.304 13.0612 10.368 13.0286C10.4 12.9959 10.432 12.9306 10.464 12.898C10.496 12.8327 10.56 12.7673 10.592 12.702C10.624 12.6694 10.624 12.6367 10.656 12.6041C10.688 12.5388 10.72 12.5061 10.72 12.4408L11.52 13.3878ZM15.232 10.7429H10.944C10.912 10.5796 10.88 10.3837 10.848 10.2204L10.24 10.8408C10.24 10.9388 10.272 11.0367 10.272 11.102C10.272 11.2653 10.24 11.4612 10.208 11.6245V11.6571C10.176 11.7878 10.144 11.8857 10.112 12.0163C10.112 12.0163 10.112 12.0163 10.112 12.049C10.08 12.1469 10.016 12.2449 9.952 12.3429C9.952 12.3429 9.952 12.3755 9.92 12.3755C9.856 12.4735 9.792 12.5714 9.728 12.6367L9.696 12.6694L9.664 12.702C9.6 12.7673 9.568 12.8 9.504 12.8653C9.472 12.898 9.408 12.9633 9.376 12.9959C9.312 13.0286 9.28 13.0612 9.216 13.0939C9.184 13.1265 9.12 13.1592 9.056 13.1918H9.024C8.992 13.2245 8.96 13.2245 8.896 13.2571L8.832 13.2898C8.8 13.2898 8.768 13.3224 8.736 13.3224H8.704C8.672 13.3224 8.64 13.3551 8.64 13.3551H8.576C8.544 13.3551 8.48 13.3878 8.448 13.3878H8.416C8.288 13.4204 8.192 13.4204 8.064 13.4204H8.032C7.968 13.4204 7.904 13.4204 7.84 13.4204H7.808C7.68 13.4204 7.584 13.3878 7.456 13.3878H7.424C7.392 13.3878 7.328 13.3551 7.264 13.3551V13.3224C7.232 13.3224 7.2 13.2898 7.168 13.2898C7.136 13.2898 7.104 13.2571 7.072 13.2571C7.04 13.2571 7.04 13.2571 7.008 13.2245C6.976 13.1918 6.912 13.1918 6.88 13.1592H6.848C6.752 13.0939 6.656 13.0286 6.56 12.9633C6.496 12.9306 6.464 12.8653 6.4 12.8327C6.336 12.7673 6.304 12.7347 6.24 12.6694L6.208 12.6367L6.176 12.6041C6.112 12.5061 6.048 12.4408 5.984 12.3429L5.952 12.3102C5.888 12.2122 5.856 12.1143 5.824 12.0163L5.76 12.049L5.824 11.9837C5.792 11.8531 5.728 11.7551 5.728 11.6571V11.6245C5.696 11.4612 5.664 11.298 5.664 11.102C5.664 9.79592 6.688 8.75102 7.968 8.75102C8.448 8.75102 8.896 8.91429 9.28 9.17551L9.76 8.68571C9.184 8.22857 8.48 8 7.712 8.09796C6.304 8.22857 5.184 9.33878 5.024 10.7755H0.672V0.685714H15.232V10.7429Z" fill="#728188"/>
<path d="M6.91202 10.351L6.40002 10.8735L7.64802 12.147C7.74402 12.2449 7.84002 12.2776 7.93602 12.2776C8.03202 12.2776 8.16002 12.2449 8.22402 12.147L11.168 9.14287L10.656 8.62042L7.96802 11.3633L6.91202 10.351Z" fill="#728188"/>
</svg>
