<svg width="12" height="16" viewBox="0 0 12 16" fill="none" xmlns="http://www.w3.org/2000/svg">
<rect x="0.5" y="0.5" width="11" height="15" rx="1.5" stroke="#728188"/>
<path d="M8.19204 6.80796L8.19204 6.80796C7.89888 6.51481 7.55703 6.28761 7.18468 6.13375C7.58163 5.79721 7.83437 5.29488 7.83437 4.73438C7.83437 3.72281 7.01156 2.9 6 2.9C4.98844 2.9 4.16562 3.72281 4.16562 4.73438C4.16562 5.29488 4.41837 5.79721 4.81533 6.13375C4.44298 6.28761 4.10114 6.51481 3.80797 6.80796L3.80797 6.80796C3.22259 7.39335 2.9 8.17215 2.9 9V9.1H3H3.46875H3.56875V9C3.56875 7.65949 4.65949 6.56875 6 6.56875C7.34051 6.56875 8.43125 7.65949 8.43125 9V9.1H8.53125H9H9.1V9C9.1 8.17215 8.77741 7.39335 8.19204 6.80796ZM6 5.9C5.35736 5.9 4.83438 5.37702 4.83438 4.73438C4.83438 4.09173 5.35736 3.56875 6 3.56875C6.64264 3.56875 7.16563 4.09173 7.16563 4.73438C7.16563 5.37702 6.64264 5.9 6 5.9Z" fill="#728188" stroke="#728188" stroke-width="0.2"/>
<rect x="3" y="10" width="6" height="1" fill="#728188"/>
<rect x="3" y="12" width="6" height="1" fill="#728188"/>
</svg>
