<svg width="16" height="16" viewBox="0 0 16 16" fill="none" xmlns="http://www.w3.org/2000/svg">
<path d="M15.5198 10.8775C15.8571 10.4592 16.0189 10.0109 15.9982 9.54914C15.9776 9.04057 15.7435 8.64241 15.5508 8.39816C15.7745 7.85613 15.8606 7.00293 15.1137 6.34044C14.5664 5.85529 13.6371 5.63781 12.3498 5.69803C11.4445 5.73818 10.6873 5.90213 10.6563 5.90882H10.6529C10.4808 5.93894 10.2984 5.97574 10.1125 6.01589C10.0987 5.80176 10.1366 5.26976 10.5427 4.07194C11.0246 2.64659 10.9971 1.55583 10.4532 0.826432C9.88188 0.0602259 8.96976 0 8.70128 0C8.44314 0 8.20564 0.103722 8.03698 0.294437C7.65493 0.726056 7.69967 1.52238 7.74786 1.89042C7.29352 3.07486 6.01999 5.97909 4.94266 6.78545C4.92201 6.79883 4.9048 6.81556 4.88759 6.83229C4.57093 7.15684 4.35753 7.50816 4.21296 7.81598C4.00989 7.70891 3.77928 7.64868 3.53145 7.64868H1.43186C0.640205 7.64868 0 8.27436 0 9.04057V14.4776C0 15.2472 0.643647 15.8695 1.43186 15.8695H3.53145C3.83779 15.8695 4.12347 15.7758 4.35753 15.6152L5.16639 15.7089C5.2903 15.7256 7.49316 15.9967 9.75453 15.9532C10.1641 15.9833 10.5496 16 10.9076 16C11.5237 16 12.0606 15.9532 12.5081 15.8595C13.5613 15.642 14.2807 15.207 14.6456 14.568C14.9244 14.0795 14.9244 13.5943 14.8796 13.2865C15.5646 12.6842 15.685 12.0184 15.6609 11.55C15.6472 11.279 15.5852 11.0481 15.5198 10.8775ZM1.43186 14.9661C1.15306 14.9661 0.92933 14.7453 0.92933 14.4776V9.03722C0.92933 8.76621 1.1565 8.54872 1.43186 8.54872H3.53145C3.81025 8.54872 4.03398 8.76955 4.03398 9.03722V14.4743C4.03398 14.7453 3.80681 14.9628 3.53145 14.9628H1.43186V14.9661ZM14.6387 10.486C14.4941 10.6332 14.4666 10.8574 14.5767 11.0314C14.5767 11.0347 14.7178 11.2689 14.735 11.5901C14.7591 12.0284 14.5423 12.4166 14.088 12.7478C13.9262 12.8683 13.8608 13.0757 13.9296 13.2631C13.9296 13.2664 14.0776 13.7081 13.8367 14.1263C13.6061 14.5278 13.0932 14.8156 12.3153 14.9762C11.6924 15.1066 10.8456 15.1301 9.80615 15.0498C9.79239 15.0498 9.77518 15.0498 9.75797 15.0498C7.54478 15.0966 5.30751 14.8156 5.28341 14.8122H5.27997L4.93233 14.7721C4.95299 14.6784 4.96331 14.578 4.96331 14.4776V9.03722C4.96331 8.89335 4.93922 8.75282 4.89791 8.62233C4.95987 8.39816 5.13197 7.89962 5.53812 7.4747C7.08356 6.28356 8.59458 2.26516 8.65998 2.09118C8.68752 2.02091 8.6944 1.94396 8.68063 1.867C8.62212 1.49226 8.64277 1.03388 8.72538 0.896696C8.9078 0.900042 9.4 0.95023 9.69601 1.34839C10.0471 1.82016 10.0333 2.66332 9.65471 3.78084C9.07646 5.4839 9.02827 6.38059 9.48605 6.77541C9.71322 6.97281 10.0161 6.98285 10.2364 6.9059C10.4464 6.85905 10.646 6.8189 10.8353 6.78879C10.8491 6.78545 10.8663 6.7821 10.88 6.77875C11.9367 6.55458 13.8298 6.4174 14.4872 6.99958C15.0448 7.49477 14.649 8.15056 14.6043 8.22083C14.4769 8.4082 14.5148 8.65245 14.6869 8.80301C14.6903 8.80636 15.0517 9.1376 15.0689 9.5826C15.0827 9.88038 14.9381 10.1849 14.6387 10.486Z" fill="#728188"/>
</svg>
