<svg width="15" height="16" viewBox="0 0 15 16" fill="none" xmlns="http://www.w3.org/2000/svg">
<path d="M14.9144 4.32991L10.859 0.0943125C10.8013 0.0340625 10.7216 0 10.6384 0H4.59412C3.91769 0 3.36735 0.552938 3.36735 1.23256V5.53847H0.917824C0.411732 5.53847 0 5.95219 0 6.46075V11.0778C0 11.5863 0.411732 12 0.917824 12H3.36735V14.7696C3.36735 15.448 3.91769 16 4.59412 16H13.7732C14.4497 16 15 15.4483 15 14.7703V4.54328C15 4.46372 14.9693 4.38725 14.9144 4.32991ZM10.7143 0.830656L14.0434 4.30769H10.7143V0.830656ZM0.917824 11.3846C0.749313 11.3846 0.612266 11.247 0.612266 11.0778V6.46075C0.612266 6.29153 0.749344 6.15384 0.917824 6.15384H9.18424C9.35275 6.15384 9.48979 6.29153 9.48979 6.46075V11.0778C9.48979 11.247 9.35272 11.3846 9.18424 11.3846H0.917824ZM14.3877 14.7703C14.3877 15.109 14.1121 15.3846 13.7732 15.3846H4.59412C4.25527 15.3846 3.97959 15.1087 3.97959 14.7696V12H9.18424C9.69033 12 10.1021 11.5863 10.1021 11.0778V6.46075C10.1021 5.95219 9.69033 5.53847 9.18424 5.53847H3.97959V1.23256C3.97959 0.892219 4.25527 0.615375 4.59412 0.615375H10.102V4.61538C10.102 4.78531 10.2391 4.92306 10.4081 4.92306H14.3877V14.7703Z" fill="#728188"/>
<path d="M3.6597 7.80921C3.55807 7.6764 3.4319 7.59015 3.28124 7.55049C3.18318 7.52405 2.97273 7.51083 2.64985 7.51083H1.79785V10.1539H2.32878V9.15686H2.67498C2.91534 9.15686 3.09889 9.14423 3.22565 9.11898C3.31892 9.09855 3.4107 9.0568 3.50099 8.99367C3.59127 8.93058 3.6657 8.84374 3.72431 8.73317C3.78291 8.62261 3.8122 8.48617 3.8122 8.32392C3.81217 8.11358 3.76134 7.94202 3.6597 7.80921ZM3.20501 8.53667C3.16496 8.59558 3.10965 8.63883 3.03908 8.66649C2.9685 8.69414 2.82862 8.70795 2.61935 8.70795H2.32878V7.95796H2.58528C2.77661 7.95796 2.90396 7.96396 2.96732 7.97599C3.05341 7.99161 3.12457 8.03068 3.18075 8.09318C3.23697 8.15568 3.26507 8.23502 3.26507 8.33114C3.2651 8.40927 3.24505 8.47777 3.20501 8.53667Z" fill="#728188"/>
<path d="M6.36457 8.23289C6.30718 8.06402 6.22345 7.9213 6.11345 7.80471C6.00345 7.68811 5.87129 7.60699 5.71705 7.5613C5.60226 7.52765 5.43543 7.51083 5.21661 7.51083H4.24622V10.1539H5.24531C5.44143 10.1539 5.59806 10.1352 5.71524 10.0979C5.87191 10.0475 5.99627 9.97717 6.08833 9.88701C6.2103 9.76801 6.30416 9.61239 6.36995 9.42008C6.42377 9.26261 6.45066 9.07511 6.45066 8.85758C6.45066 8.60999 6.42196 8.40177 6.36457 8.23289ZM5.84797 9.31823C5.81209 9.43664 5.76577 9.52167 5.70896 9.57333C5.65216 9.62501 5.58071 9.66167 5.49462 9.68329C5.42887 9.70014 5.32182 9.70855 5.17355 9.70855H4.77715V7.95796H5.01571C5.23213 7.95796 5.37744 7.96636 5.45156 7.98321C5.55081 8.00483 5.63273 8.0463 5.6973 8.10761C5.76188 8.16893 5.81209 8.25424 5.84797 8.36361C5.88385 8.47299 5.90179 8.62983 5.90179 8.83417C5.90179 9.03848 5.88385 9.19983 5.84797 9.31823Z" fill="#728188"/>
<path d="M8.70719 7.95796V7.51083H6.90454V10.1539H7.43547V9.03067H8.53321V8.58355H7.43547V7.95796H8.70719Z" fill="#728188"/>
</svg>
