<svg width="18" height="16" viewBox="0 0 18 16" fill="none" xmlns="http://www.w3.org/2000/svg">
<path d="M2.39828 6.47029L2.46576 6.55618L2.48667 6.44897C3.19735 2.80546 6.3593 0.05 10.1426 0.05C14.4466 0.05 17.95 3.6157 17.95 8C17.95 12.3673 14.4737 15.9224 10.1926 15.9498V14.8191C13.864 14.7916 16.8412 11.7421 16.8412 8C16.8412 4.24091 13.8369 1.18076 10.1426 1.18076C6.79855 1.18076 4.02908 3.68981 3.53113 6.95245L3.51644 7.04873L3.60324 7.00455L6.22289 5.67123L6.71974 6.6824L3.13733 8.50614C3.1373 8.50616 3.13726 8.50618 3.13723 8.5062C3.05793 8.54623 2.97325 8.56538 2.8897 8.56538C2.72592 8.56538 2.56518 8.49103 2.45693 8.35367L0.0696649 5.31541L0.936212 4.60937L2.39828 6.47029Z" fill="#728188" stroke="white" stroke-width="0.1"/>
</svg>
