<svg width="257" height="40" viewBox="0 0 257 40" fill="none" xmlns="http://www.w3.org/2000/svg">
<path d="M0 4.72003H5.5243L9.76761 23.44L15.0517 4.72003H19.6953L24.9795 23.44L29.1427 4.72003H34.667L28.0218 34H22.6577L17.2935 15.04L12.0094 34H6.64518L0 4.72003Z" fill="#0984E3"/>
<path d="M52.8412 4C57.0045 4 60.5272 5.52 63.5696 8.48C66.612 11.44 68.0531 15.2 68.0531 19.44C68.0531 23.76 66.612 27.36 63.6496 30.32C60.6873 33.28 57.1646 34.72 52.9213 34.72C48.5179 34.72 44.835 33.2 41.9527 30.16C39.0705 27.12 37.5493 23.52 37.5493 19.36C37.5493 16.56 38.2699 14 39.5509 11.6C40.9119 9.28 42.7534 7.44 45.1552 6C47.5571 4.64 50.1191 4 52.8412 4ZM52.7612 9.44C50.039 9.44 47.7973 10.4 45.9559 12.24C44.1144 14.16 43.1537 16.56 43.1537 19.44C43.1537 22.64 44.2746 25.28 46.6764 27.12C48.4378 28.56 50.5194 29.36 52.9213 29.36C55.5633 29.36 57.8051 28.4 59.7266 26.48C61.6481 24.56 62.5288 22.16 62.5288 19.44C62.5288 16.64 61.568 14.24 59.7266 12.32C57.725 10.4 55.4833 9.44 52.7612 9.44Z" fill="#0984E3"/>
<path d="M87.1081 4C91.2713 4 94.7941 5.52 97.8364 8.48C100.879 11.44 102.32 15.2 102.32 19.44C102.32 23.76 100.879 27.36 97.9165 30.32C94.9542 33.28 91.4314 34.72 87.1881 34.72C82.7847 34.72 79.1018 33.2 76.2196 30.16C73.3373 27.12 71.8162 23.52 71.8162 19.36C71.8162 16.56 72.5367 14 73.8177 11.6C75.0987 9.2 77.0202 7.44 79.4221 6C81.824 4.64 84.386 4 87.1081 4ZM87.1081 9.44C84.386 9.44 82.1442 10.4 80.3028 12.24C78.4613 14.16 77.5006 16.56 77.5006 19.44C77.5006 22.64 78.6215 25.28 81.0233 27.12C82.7847 28.56 84.8663 29.36 87.2682 29.36C89.9103 29.36 92.152 28.4 94.0735 26.48C95.995 24.56 96.8757 22.16 96.8757 19.44C96.8757 16.64 95.9149 14.24 94.0735 12.32C92.0719 10.4 89.7501 9.44 87.1081 9.44Z" fill="#0984E3"/>
<path fill-rule="evenodd" clip-rule="evenodd" d="M254.278 40H110.246C108.805 40 107.524 38.8 107.524 37.28V2.72C107.524 1.28 108.725 0 110.246 0H254.278C255.719 0 257 1.2 257 2.72V37.28C257 38.8 255.719 40 254.278 40ZM113.528 5.35998H118.892L131.462 24.64V5.35998H137.066V34.64H131.702L119.132 15.44V34.64H113.528V5.35998ZM148.756 5.35999H143.232V34.64H148.756V5.35999ZM155.16 5.35999H160.524L173.094 24.64V5.35999H178.699V34.64H173.334L160.765 15.44V34.64H155.16V5.35999ZM198.233 5.35999H192.629L192.549 25.84C192.549 27.52 192.389 28.64 192.069 29.12C191.748 29.6 191.268 29.84 190.707 29.84C190.227 29.84 189.587 29.76 188.946 29.36C188.386 29.04 187.585 28.4 186.704 27.36L182.701 31.12C184.943 33.92 187.745 35.36 190.948 35.36C192.549 35.36 193.91 34.96 195.031 34.24C196.232 33.52 197.032 32.56 197.513 31.28C197.993 30.08 198.233 27.92 198.233 24.8V5.35999ZM213.846 5.35999H219.531L230.82 34.64H224.975L222.653 28.64H210.644L208.242 34.64H202.558L213.846 5.35999ZM216.729 13.12L212.806 23.2H220.652L216.729 13.12ZM246.352 13.0401L250.515 9.36006C248.994 7.52006 247.553 6.32006 246.192 5.76006C244.911 5.04006 243.469 4.72006 242.028 4.72006C239.787 4.72006 237.945 5.44006 236.344 6.88006C234.823 8.32006 234.022 10.0801 234.022 12.0801C234.022 13.5201 234.422 14.8801 235.383 16.3201C236.264 17.6801 238.345 19.7601 241.548 22.3201C243.229 23.6801 244.35 24.7201 244.83 25.3601C245.311 26.0001 245.551 26.7201 245.551 27.3601C245.551 28.0801 245.231 28.7201 244.59 29.2801C243.95 29.84 243.149 30.08 242.188 30.08C240.347 30.08 238.746 28.8001 237.305 26.2401L232.581 29.0401C233.702 31.2001 234.983 32.8 236.584 33.84C238.105 34.88 239.947 35.3601 242.028 35.3601C244.67 35.3601 246.832 34.64 248.513 33.04C250.195 31.52 250.995 29.5201 250.995 27.1201C250.995 25.8401 250.755 24.7201 250.275 23.6801C249.794 22.6401 248.994 21.5201 247.873 20.4001C247.537 19.9973 246.525 19.1442 244.978 17.8405C244.682 17.5903 244.365 17.3235 244.03 17.0401C241.708 15.1201 240.427 13.8401 239.947 13.2801C239.626 12.8801 239.466 12.4001 239.466 11.9201C239.466 11.3601 239.706 10.9601 240.187 10.5601C240.587 10.1601 241.228 10.0001 241.948 10.0001C243.389 10.0001 244.911 11.0401 246.352 13.0401Z" fill="#0984E3"/>
</svg>
